<svg width="20" height="20" viewBox="0 0 20 20" fill="none" xmlns="http://www.w3.org/2000/svg">
<path d="M1.02843 20C0.764981 20 0.501532 19.8998 0.301371 19.6981C-0.100457 19.2963 -0.100457 18.6448 0.301371 18.243L18.243 0.301371C18.6448 -0.100457 19.2963 -0.100457 19.6981 0.301371C20.1 0.7032 20.1 1.35466 19.6981 1.75674L1.75674 19.6981C1.55508 19.8985 1.29163 20 1.02843 20Z" fill="#172345"/>
<path d="M18.9713 20C18.7079 20 18.4447 19.8998 18.2443 19.6981L0.301371 1.75674C-0.100457 1.35466 -0.100457 0.7032 0.301371 0.301371C0.7032 -0.100457 1.35466 -0.100457 1.75674 0.301371L19.6981 18.243C20.1 18.6448 20.1 19.2963 19.6981 19.6981C19.4965 19.8985 19.2333 20 18.9713 20Z" fill="#172345"/>
</svg>
