<svg width="30" height="16" viewBox="0 0 30 16" fill="none" xmlns="http://www.w3.org/2000/svg">
<path d="M0.9375 2.00004H29.0625C29.58 2.00004 30 1.55303 30 1.00002C30 0.44701 29.58 0 29.0625 0H0.9375C0.42 0 0 0.44701 0 1.00002C0 1.55303 0.419063 2.00004 0.9375 2.00004Z" fill="#32325D"/>
<path d="M0.9375 16H29.0625C29.58 16 30 15.553 30 15C30 14.447 29.58 14 29.0625 14H0.9375C0.42 14 0 14.447 0 15C0 15.553 0.419063 16 0.9375 16Z" fill="#32325D"/>
<path d="M0.9375 9.00005H29.0625C29.58 9.00005 30 8.55304 30 8.00002C30 7.44701 29.58 7 29.0625 7H0.9375C0.42 7 0 7.44701 0 8.00002C0 8.55304 0.419063 9.00005 0.9375 9.00005Z" fill="#32325D"/>
</svg>
