<svg width="24" height="24" viewBox="0 0 24 24" fill="none" xmlns="http://www.w3.org/2000/svg">
<g clip-path="url(#clip0)">
<path d="M2.58272 6.60398C1.15654 6.60398 -8.44002e-05 5.44246 -8.44002e-05 4.02118C-8.44002e-05 2.5999 1.15654 1.43347 2.58272 1.43347C4.0089 1.43347 5.16553 2.595 5.16553 4.01628C5.16553 5.43756 4.004 6.60398 2.58272 6.60398ZM2.58272 2.63421C1.81817 2.63421 1.20065 3.25663 1.20065 4.01628C1.20065 4.77593 1.82307 5.39835 2.58272 5.39835C3.34237 5.39835 3.96479 4.77593 3.96479 4.01628C3.96479 3.25663 3.34237 2.63421 2.58272 2.63421Z" fill="#32325D"/>
<path d="M2.58321 13.8565C1.15703 13.8565 0.000403881 12.695 0.000403881 11.2737C0.000403881 9.85245 1.15703 8.69092 2.58321 8.69092C4.00939 8.69092 5.16602 9.84754 5.16602 11.2737C5.16602 12.6999 4.00449 13.8565 2.58321 13.8565ZM2.58321 9.89165C1.81866 9.89165 1.20114 10.5141 1.20114 11.2737C1.20114 12.0334 1.82356 12.6558 2.58321 12.6558C3.34286 12.6558 3.96528 12.0383 3.96528 11.2737C3.96528 10.5092 3.34286 9.89165 2.58321 9.89165Z" fill="#32325D"/>
<path d="M2.58321 21.1092C1.15703 21.1092 0.000403881 19.9477 0.000403881 18.5264C0.000403881 17.1002 1.16193 15.9436 2.58321 15.9436C4.00449 15.9436 5.16602 17.1051 5.16602 18.5264C5.16602 19.9477 4.00449 21.1092 2.58321 21.1092ZM2.58321 17.1394C1.81866 17.1394 1.20114 17.7619 1.20114 18.5215C1.20114 19.2861 1.82356 19.9036 2.58321 19.9036C3.34286 19.9036 3.96528 19.2812 3.96528 18.5215C3.96528 17.7619 3.34286 17.1394 2.58321 17.1394Z" fill="#32325D"/>
<path d="M22.632 4.61909H7.85566C7.52239 4.61909 7.25284 4.34953 7.25284 4.01627C7.25284 3.683 7.52239 3.41345 7.85566 3.41345H22.632C22.9653 3.41345 23.2349 3.683 23.2349 4.01627C23.2349 4.34953 22.9653 4.61909 22.632 4.61909Z" fill="#32325D"/>
<path d="M22.632 11.8765H7.85566C7.52239 11.8765 7.25284 11.607 7.25284 11.2737C7.25284 10.9405 7.52239 10.6709 7.85566 10.6709H22.632C22.9653 10.6709 23.2349 10.9405 23.2349 11.2737C23.2349 11.607 22.9653 11.8765 22.632 11.8765Z" fill="#32325D"/>
<path d="M22.632 19.1243H7.85566C7.52239 19.1243 7.25284 18.8548 7.25284 18.5215C7.25284 18.1883 7.52239 17.9187 7.85566 17.9187H22.632C22.9653 17.9187 23.2349 18.1883 23.2349 18.5215C23.2349 18.8548 22.9653 19.1243 22.632 19.1243Z" fill="#32325D"/>
</g>
<defs>
<clipPath id="clip0">
<rect width="24" height="24" fill="white"/>
</clipPath>
</defs>
</svg>
