<svg xmlns="http://www.w3.org/2000/svg" xmlns:xlink="http://www.w3.org/1999/xlink" width="0" height="0" style="position:absolute">
	
		<symbol id="logo" viewBox="0 0 140 40">
			<g clip-path="url(#a)"><path d="M54.06 27.44c-1.411.53-3.013.795-4.805.795-5.874 0-8.81-2.82-8.81-8.462 0-5.339 2.936-8.008 8.809-8.008 1.793 0 3.394.265 4.805.795v2.726c-1.41-.606-2.937-.909-4.577-.909-3.928 0-5.892 1.8-5.892 5.396 0 3.9 1.964 5.85 5.892 5.85 1.641 0 3.166-.303 4.577-.91v2.727zm5.033-5.327c0 2.491.972 3.737 2.918 3.737 1.944 0 2.917-1.246 2.917-3.737 0-2.43-.972-3.646-2.917-3.646-1.945 0-2.918 1.215-2.918 3.646zm-3.032.045c0-3.998 1.983-5.997 5.95-5.997 3.965 0 5.948 2 5.948 5.997 0 3.991-1.983 5.986-5.95 5.986-3.95 0-5.932-1.995-5.948-5.986zm17.218-10.28v2.386h-3.031v-2.386h3.031zm0 4.317v11.927h-3.031V16.195h3.031zm2.872 11.927V16.195h2.346l.377 1.75c1.151-1.167 2.464-1.75 3.935-1.75 2.846 0 4.268 1.47 4.268 4.407v7.52h-3.032v-7.52c0-1.318-.66-1.977-1.979-1.977-.984 0-1.945.39-2.883 1.17v8.327H76.15zm13.797-.568v-2.5c1.336.53 2.876.796 4.623.796 1.304 0 1.956-.417 1.956-1.25 0-.795-.439-1.192-1.316-1.192h-2.174c-2.44 0-3.66-1.193-3.66-3.578 0-2.5 1.781-3.749 5.343-3.749 1.51 0 2.932.227 4.267.682v2.5c-1.335-.53-2.784-.797-4.348-.797-1.64 0-2.46.417-2.46 1.25 0 .795.478 1.193 1.43 1.193h1.946c2.668 0 4.004 1.192 4.004 3.578 0 2.5-1.701 3.748-5.102 3.748-1.671 0-3.173-.227-4.509-.68zm11.567-13.29h2.243l.457 1.93h3.021v2.386h-2.689v5.487c0 1.113.484 1.67 1.453 1.67h1.236v2.385h-2.7c-2.014 0-3.021-1.072-3.021-3.215V14.264zm7.792 13.858V16.195h2.344l.378 1.522c1.053-1.015 2.167-1.522 3.341-1.522v2.43c-1.129 0-2.139.466-3.032 1.398v8.1h-3.031zm7.207-3.715c0-2.37 1.74-3.555 5.217-3.555.816 0 1.632.076 2.448.227v-.897c0-1.068-.774-1.602-2.322-1.602-1.312 0-2.768.19-4.371.568v-2.385c1.603-.379 3.059-.568 4.371-.568 3.57 0 5.355 1.31 5.355 3.93v7.997h-1.763l-1.075-1.068a6.006 6.006 0 0 1-3.455 1.068c-2.936 0-4.405-1.238-4.405-3.715zm7.665-1.283a12.545 12.545 0 0 0-2.448-.227c-1.457 0-2.185.492-2.185 1.476 0 1.06.61 1.59 1.831 1.59 1.006 0 1.941-.31 2.802-.93v-1.909zm8.936-11.246v2.386h-3.032v-2.386h3.032zm0 4.317v11.927h-3.032V16.195h3.032zm5.903-4.317v16.244h-3.032V11.878h3.032z" fill="#172345"></path><path fill-rule="evenodd" clip-rule="evenodd" d="M20.144 0c2.813-.003 5.595.58 8.166 1.712a20.085 20.085 0 0 1 6.76 4.858l-9.136 9.054a7.198 7.198 0 0 0-3.612-2.534 7.248 7.248 0 0 0-4.422.04 7.196 7.196 0 0 0-3.564 2.6 7.112 7.112 0 0 0-.003 8.357 7.195 7.195 0 0 0 3.562 2.604c1.433.475 2.98.49 4.422.044a7.197 7.197 0 0 0 3.614-2.532l9.211 9.147a20.086 20.086 0 0 1-6.783 4.916A20.215 20.215 0 0 1 20.144 40C9.018 40 0 31.046 0 20v-.177h12.922L2.816 9.795l.044-.073A20.164 20.164 0 0 1 20.144 0z" fill="#3269DC"></path></g><defs><clipPath id="a"><path fill="#fff" d="M0 0h140v40H0z"></path></clipPath></defs>
		</symbol>
	
</svg>
