<svg xmlns="http://www.w3.org/2000/svg" xmlns:xlink="http://www.w3.org/1999/xlink" width="0" height="0" style="position:absolute">
	
		<symbol id="arrow-down" viewBox="0 0 20 20">
			<path d="M5 7.764L5.803 7l4.697 4.51L15.197 7l.803.764L10.5 13 5 7.764z"></path>
		</symbol>
	
		<symbol id="close" viewBox="0 0 18 18">
			<path d="M.926 18a.926.926 0 0 1-.654-1.581L16.418.27a.926.926 0 1 1 1.31 1.31L1.58 17.728A.928.928 0 0 1 .926 18z"></path><path d="M17.074 18a.919.919 0 0 1-.654-.272L.27 1.581A.926.926 0 0 1 1.58.271L17.728 16.42a.926.926 0 0 1-.654 1.58z"></path>
		</symbol>
	
		<symbol id="eye" viewBox="0 0 30 30">
			<path d="M15.002 17.956a2.955 2.955 0 1 0 0-5.91 2.955 2.955 0 0 0 0 5.91z"></path><path d="M26.851 14.627C26.635 14.397 21.486 9 15 9S3.364 14.398 3.147 14.627a.547.547 0 0 0 0 .747c.216.23 5.365 5.63 11.85 5.63 6.488 0 11.638-5.4 11.853-5.63a.544.544 0 0 0 0-.747zM15 19.57A4.573 4.573 0 0 1 10.433 15 4.574 4.574 0 0 1 15 10.431c2.518 0 4.57 2.05 4.57 4.57A4.577 4.577 0 0 1 15 19.57zm-3.622-8.883C10.144 11.726 9.341 13.263 9.341 15c0 1.736.803 3.274 2.037 4.314-3.415-1.098-6.097-3.41-7.055-4.314.958-.904 3.64-3.215 7.055-4.313zm7.245 8.626c1.234-1.04 2.038-2.578 2.038-4.313 0-1.735-.804-3.272-2.039-4.311 3.415 1.098 6.095 3.406 7.054 4.311-.959.904-3.639 3.213-7.053 4.313z"></path>
		</symbol>
	
		<symbol id="hamburger" viewBox="0 0 30 16">
			<path d="M.938 2h28.125C29.58 2 30 1.553 30 1c0-.553-.42-1-.938-1H.938C.42 0 0 .447 0 1c0 .553.42 1 .938 1zm0 14h28.125c.517 0 .937-.447.937-1 0-.553-.42-1-.938-1H.938C.42 14 0 14.447 0 15c0 .553.42 1 .938 1zm0-7h28.125C29.58 9 30 8.553 30 8c0-.553-.42-1-.938-1H.938C.42 7 0 7.447 0 8c0 .553.42 1 .938 1z"></path>
		</symbol>
	
		<symbol id="plus" viewBox="0 0 30 30">
			<path d="M15 6.25v17.5M6.25 15h17.5" stroke="#000" stroke-width="2" stroke-linecap="round" stroke-linejoin="round"></path>
		</symbol>
	
		<symbol id="search" viewBox="0 0 25 24">
			<path d="M8.738 17.479a8.674 8.674 0 0 0 5.594-2.028l.808.808-.268.268a.75.75 0 0 0 0 1.06l6.193 6.193a.748.748 0 0 0 1.06 0l1.657-1.656a.75.75 0 0 0 0-1.06l-6.194-6.193a.75.75 0 0 0-1.06 0l-.327.327-.805-.805a8.667 8.667 0 0 0 2.083-5.653c0-2.334-.91-4.53-2.56-6.18A8.682 8.682 0 0 0 8.739 0 8.68 8.68 0 0 0 2.56 2.56 8.681 8.681 0 0 0 0 8.74a8.68 8.68 0 0 0 2.56 6.179 8.673 8.673 0 0 0 6.178 2.56zm13.452 4.116l-.596.594-5.132-5.132.595-.595 5.133 5.133zM3.62 3.62A7.19 7.19 0 0 1 8.738 1.5c1.934 0 3.752.753 5.12 2.12a7.193 7.193 0 0 1 2.12 5.12 7.191 7.191 0 0 1-2.12 5.118 7.193 7.193 0 0 1-5.12 2.12 7.191 7.191 0 0 1-5.118-2.12A7.192 7.192 0 0 1 1.5 8.741a7.19 7.19 0 0 1 2.12-5.12z"></path>
		</symbol>
	
		<symbol id="settings" viewBox="0 0 20 20">
			<path d="M10.25 14.163h9.188a.556.556 0 0 0 .562-.555.556.556 0 0 0-.562-.555H10.25a2.85 2.85 0 0 0-2.799-2.26 2.85 2.85 0 0 0-2.799 2.26H.562a.556.556 0 0 0-.562.555c0 .308.25.555.562.555h4.09a2.85 2.85 0 0 0 2.8 2.26 2.85 2.85 0 0 0 2.798-2.26zm-4.527-.555c0-.941.774-1.706 1.728-1.706s1.729.765 1.729 1.706-.775 1.705-1.729 1.705a1.718 1.718 0 0 1-1.728-1.705zm9.242-6.238h4.473A.556.556 0 0 0 20 6.815a.556.556 0 0 0-.562-.555h-4.473a2.85 2.85 0 0 0-2.8-2.26 2.85 2.85 0 0 0-2.798 2.26H.562A.556.556 0 0 0 0 6.815c0 .308.25.555.562.555h8.81a2.85 2.85 0 0 0 2.798 2.26 2.845 2.845 0 0 0 2.795-2.26zm-4.528-.555c0-.941.775-1.705 1.729-1.705.954 0 1.728.764 1.728 1.705 0 .941-.774 1.705-1.728 1.705s-1.729-.768-1.729-1.705z"></path>
		</symbol>
	
		<symbol id="álose" viewBox="0 0 20 20">
			<path d="M1.028 20a1.029 1.029 0 0 1-.727-1.757L18.243.301a1.029 1.029 0 1 1 1.455 1.456L1.757 19.698c-.202.2-.465.302-.729.302z"></path><path d="M18.971 20c-.263 0-.526-.1-.727-.302L.301 1.757A1.03 1.03 0 0 1 1.757.3l17.941 17.942A1.029 1.029 0 0 1 18.971 20z"></path>
		</symbol>
	
		<symbol id="бlose" viewBox="0 0 20 20">
			<path d="M1.028 20a1.029 1.029 0 0 1-.727-1.757L18.243.301a1.029 1.029 0 1 1 1.455 1.456L1.757 19.698c-.202.2-.465.302-.729.302z"></path><path d="M18.971 20c-.263 0-.526-.1-.727-.302L.301 1.757A1.03 1.03 0 0 1 1.757.3l17.941 17.942A1.029 1.029 0 0 1 18.971 20z"></path>
		</symbol>
	
		<symbol id="сlose" viewBox="0 0 20 20">
			<path d="M1.028 20a1.029 1.029 0 0 1-.727-1.757L18.243.301a1.029 1.029 0 1 1 1.455 1.456L1.757 19.698c-.202.2-.465.302-.729.302z"></path><path d="M18.971 20c-.263 0-.526-.1-.727-.302L.301 1.757A1.03 1.03 0 0 1 1.757.3l17.941 17.942A1.029 1.029 0 0 1 18.971 20z"></path>
		</symbol>
	
</svg>
